<?xml version="1.0" encoding="utf-8"?>
<!-- Generator: Adobe Illustrator 15.0.0, SVG Export Plug-In . SVG Version: 6.00 Build 0)  -->
<!DOCTYPE svg PUBLIC "-//W3C//DTD SVG 1.1//EN" "http://www.w3.org/Graphics/SVG/1.1/DTD/svg11.dtd">
<svg version="1.1" id="レイヤー_1" xmlns="http://www.w3.org/2000/svg" xmlns:xlink="http://www.w3.org/1999/xlink" x="0px"
	 y="0px" width="120px" height="23px" viewBox="0 0 120 23" enable-background="new 0 0 120 23" xml:space="preserve">
<g>
	<path fill="#FFFFFF" d="M32.666,10.387c0.374,0.407,1.364,1.606,1.606,1.915l-0.385,0.45c-0.209-0.362-0.792-1.166-1.221-1.705
		v5.314h-0.517v-5.996c-0.462,1.474-1.133,2.97-1.793,3.828c-0.066-0.143-0.22-0.352-0.319-0.462
		c0.781-0.99,1.617-2.883,2.013-4.543h-1.76V8.66h1.859V6.207l0.704,0.044c-0.011,0.066-0.055,0.121-0.187,0.132V8.66h1.617v0.528
		h-1.617V10.387z M39.563,10.398l0.352,0.165c-0.011,0.044-0.044,0.065-0.088,0.088c-0.429,1.562-1.221,2.805-2.211,3.74
		c0.803,0.704,1.771,1.243,2.904,1.551c-0.121,0.11-0.275,0.309-0.352,0.463c-1.133-0.353-2.123-0.925-2.948-1.673
		c-0.946,0.792-2.058,1.343-3.202,1.673c-0.055-0.144-0.198-0.363-0.297-0.474c1.1-0.286,2.2-0.803,3.135-1.562
		c-0.825-0.869-1.463-1.936-1.881-3.168l0.473-0.144c0.385,1.155,0.99,2.168,1.782,2.981c0.869-0.803,1.573-1.837,1.98-3.102h-4.797
		v-0.507h2.563V8.506H34.25V7.989h2.729V6.207l0.715,0.044c-0.011,0.066-0.055,0.121-0.187,0.132v1.606h2.871v0.517h-2.871v1.925
		h1.969L39.563,10.398z"/>
	<path fill="#FFFFFF" d="M51.069,9.584h-4.291c1.067,2.002,2.938,4.06,4.632,5.027c-0.143,0.11-0.319,0.319-0.418,0.462
		c-1.617-1.012-3.355-2.959-4.478-4.961v6.26h-0.55v-6.249c-1.1,2.046-2.828,3.982-4.5,4.973c-0.099-0.143-0.264-0.33-0.396-0.44
		c1.76-0.957,3.587-3.014,4.621-5.071h-4.247V9.056h4.522V6.217l0.748,0.055c-0.011,0.066-0.066,0.121-0.198,0.132v2.651h4.555
		V9.584z"/>
	<path fill="#FFFFFF" d="M55.535,11.289c0,0.572-0.462,1.034-1.034,1.034c-0.572,0-1.034-0.462-1.034-1.034s0.462-1.034,1.034-1.034
		C55.095,10.255,55.535,10.739,55.535,11.289z"/>
	<path fill="#FFFFFF" d="M67.734,13.93v0.506h-4.752v1.97h-0.539v-1.97h-4.654V13.93h4.654v-1.145h-3.191V8.847h7.03v3.938h-3.3
		v1.145H67.734z M60.572,8.616V7.747h-2.695V7.251h2.695V6.207l0.727,0.055c-0.012,0.066-0.066,0.121-0.198,0.132v0.858h3.278V6.207
		l0.715,0.055c-0.011,0.066-0.065,0.121-0.187,0.132v0.858h2.751v0.495h-2.751v0.869h-0.528V7.747h-3.278v0.869H60.572z M59.77,9.32
		v1.265h5.974V9.32H59.77z M59.77,11.036v1.287h5.974v-1.287H59.77z"/>
	<path fill="#FFFFFF" d="M78.734,13.786h-4.125c1.045,0.892,2.771,1.629,4.323,1.959c-0.121,0.109-0.265,0.318-0.341,0.451
		c-1.65-0.407-3.564-1.332-4.609-2.398v2.607h-0.529v-2.563c-1.1,1.012-3.003,1.903-4.532,2.321
		c-0.088-0.132-0.231-0.319-0.353-0.418c1.464-0.353,3.202-1.111,4.28-1.959h-4.048v-0.473h4.652v-0.99h-3.014V9.661h-1.639V9.188
		h1.639V8.275l0.727,0.055c-0.012,0.066-0.066,0.11-0.199,0.132v0.726h2.102V8.165l0.705,0.055c-0.012,0.066-0.056,0.11-0.188,0.132
		v0.836h2.695V8.253l0.727,0.044c-0.012,0.066-0.066,0.121-0.188,0.132v0.759h1.893v0.473H76.82v1.408h-3.752V9.661h-2.102v2.2
		h7.394v0.462h-4.62v0.011l0.439,0.022c-0.011,0.065-0.066,0.121-0.197,0.132v0.825h4.752V13.786z M71.562,8.462V7.659h-2.761V7.196
		h2.761v-0.99l0.726,0.055c-0.011,0.066-0.065,0.121-0.197,0.132v0.803h3.268v-0.99l0.726,0.055
		c-0.011,0.066-0.055,0.121-0.187,0.132v0.803h2.816v0.462h-2.816v0.858h-0.539V7.659H72.09v0.803H71.562z M76.281,9.661h-2.695
		v0.99h2.695V9.661z"/>
	<path fill="#FFFFFF" d="M81.891,11.223V9.265c-0.518,0.771-1.244,1.519-1.914,1.914c-0.088-0.121-0.231-0.285-0.342-0.385
		c0.727-0.374,1.541-1.166,2.035-1.958h-1.881V8.363h2.102V6.217l0.682,0.055c-0.011,0.066-0.055,0.11-0.188,0.132v1.958h2.068
		v0.473h-2.068v0.22c0.451,0.275,1.794,1.166,2.113,1.408l-0.319,0.418c-0.308-0.286-1.21-0.957-1.794-1.353v1.693H81.891z
		 M82.375,13.071c-0.022,0.198-0.045,0.396-0.088,0.605c0.692,0.495,1.539,1.155,2.002,1.573l-0.375,0.362
		c-0.396-0.374-1.121-0.968-1.781-1.463c-0.287,0.727-0.902,1.419-2.179,2.002c-0.056-0.12-0.198-0.308-0.297-0.418
		c1.728-0.78,2.123-1.749,2.2-2.662h-2.08v-0.506h2.102v-1.078l0.693,0.055c-0.011,0.066-0.055,0.11-0.188,0.132v0.892h2.124v0.506
		H82.375z M80.482,6.591c0.308,0.396,0.605,0.935,0.703,1.287l-0.428,0.198c-0.1-0.363-0.386-0.913-0.683-1.32L80.482,6.591z
		 M83.057,7.923c0.242-0.363,0.55-0.968,0.715-1.364L84.377,6.8c-0.033,0.055-0.11,0.088-0.209,0.088
		c-0.176,0.341-0.484,0.869-0.727,1.21L83.057,7.923z M86.566,14.908c-0.033,0.045-0.1,0.077-0.209,0.089
		c-0.44,0.483-1.387,1.056-2.223,1.396c-0.088-0.109-0.253-0.297-0.374-0.385c0.847-0.319,1.782-0.869,2.222-1.364L86.566,14.908z
		 M84.927,8.539h1.54c0.11-0.385,0.231-0.858,0.319-1.254h-2.255V6.79h5.313v0.495h-2.497c-0.088,0.352-0.221,0.847-0.353,1.254
		h2.453v5.776h-4.521V8.539z M88.92,10.31V9.001h-3.486v1.309H88.92z M88.92,12.07v-1.31h-3.486v1.31H88.92z M88.92,13.853v-1.331
		h-3.486v1.331H88.92z M88.096,14.678c0.671,0.396,1.518,0.99,1.947,1.408c-0.066,0.055-0.154,0.11-0.43,0.308
		c-0.406-0.407-1.243-1.022-1.936-1.44L88.096,14.678z"/>
</g>
</svg>
