<?xml version="1.0" encoding="utf-8"?>
<!-- Generator: Adobe Illustrator 15.0.0, SVG Export Plug-In . SVG Version: 6.00 Build 0)  -->
<!DOCTYPE svg PUBLIC "-//W3C//DTD SVG 1.1//EN" "http://www.w3.org/Graphics/SVG/1.1/DTD/svg11.dtd">
<svg version="1.1" id="レイヤー_1" xmlns="http://www.w3.org/2000/svg" xmlns:xlink="http://www.w3.org/1999/xlink" x="0px"
	 y="0px" width="120px" height="23px" viewBox="0 0 120 23" enable-background="new 0 0 120 23" xml:space="preserve">
<g>
	<path fill="#FFFFFF" d="M32.491,11.526h13.168v0.77H32.491V11.526z"/>
	<path fill="#FFFFFF" d="M52.616,12.068l-0.698,0.086v5.644c0,0.783-0.314,0.854-2.024,0.854c-0.043-0.171-0.143-0.441-0.228-0.612
		c0.342,0,0.641,0.014,0.884,0.014c0.669,0,0.741,0,0.741-0.242v-5.572l-2.921,0.371c0,1.524-0.057,4.261-1.197,6.042
		c-0.114-0.113-0.371-0.285-0.527-0.356c1.041-1.61,1.112-3.919,1.112-5.615l-0.642,0.071c-0.014,0.101-0.071,0.157-0.171,0.186
		l-0.271-0.783l1.083-0.114V7.494h1.211c0.228-0.584,0.513-1.439,0.641-2.01l0.898,0.257c-0.028,0.085-0.128,0.128-0.285,0.128
		c-0.143,0.456-0.385,1.098-0.613,1.625h2.309v4.104l0.698-0.085V12.068z M48.369,8.106v3.876c0.883-0.1,1.896-0.199,2.921-0.313
		V8.106H48.369z M49.965,11.099c-0.114-0.57-0.47-1.411-0.855-2.052l0.484-0.199c0.428,0.627,0.77,1.468,0.912,2.038L49.965,11.099z
		 M50.236,13.08c-0.014,0.071-0.071,0.143-0.228,0.157v3.264h-0.542v-3.478L50.236,13.08z M58.73,11.969l0.456,0.199
		c-0.014,0.071-0.071,0.1-0.1,0.143c-0.47,1.61-1.311,2.922-2.352,3.948c0.94,0.826,2.081,1.453,3.349,1.81
		c-0.157,0.143-0.356,0.413-0.456,0.584c-1.283-0.398-2.423-1.068-3.377-1.938c-1.041,0.897-2.238,1.539-3.478,1.966
		c-0.085-0.171-0.257-0.441-0.399-0.598c1.197-0.356,2.38-0.983,3.392-1.854c-0.912-0.954-1.639-2.123-2.124-3.435l0.47-0.143
		h-1.069v-0.655h5.559L58.73,11.969z M54.611,6.709v1.283c0,1.055-0.242,2.423-1.396,3.349c-0.114-0.142-0.356-0.356-0.513-0.441
		c1.083-0.841,1.254-1.996,1.254-2.936V6.068h3.977v3.449c0,0.513,0.028,0.57,0.371,0.57h0.513c0.57,0,0.57-0.085,0.613-1.525
		c0.128,0.114,0.356,0.228,0.542,0.285c-0.043,1.354-0.057,1.795-1.083,1.795h-0.698c-0.912,0-0.912-0.456-0.912-1.24V6.709H54.611z
		 M54.227,12.652c0.456,1.184,1.14,2.252,2.009,3.15c0.87-0.855,1.568-1.91,2.01-3.15H54.227z"/>
	<path fill="#FFFFFF" d="M71.359,17.171c-1.312,0.242-2.993,0.355-4.433,0.355c-1.14,0-2.124-0.071-2.651-0.185
		c-1.682-0.371-2.408-1.411-2.408-2.651c0-1.068,0.599-2.181,1.469-3.063l0.598,0.342c-0.855,0.884-1.325,1.867-1.325,2.708
		c0,0.883,0.585,1.667,1.896,1.967c0.484,0.113,1.354,0.185,2.395,0.185c1.383,0,3.035-0.128,4.403-0.398L71.359,17.171z
		 M65.145,10.059c0.842-0.641,1.925-1.382,2.779-1.795V8.249c-1.211,0.143-3.861,0.199-5.558,0.185l-0.015-0.727
		c1.568,0.028,4.39-0.043,5.701-0.143c0.812-0.071,1.61-0.143,2.365-0.328l0.129,0.77c-0.499,0.057-0.826,0.128-1.539,0.441
		c-0.812,0.342-2.195,1.154-3.307,2.038L65.145,10.059z M71.444,11.94c-0.442-0.642-1.325-1.497-1.967-1.967l0.37-0.356
		c0.699,0.513,1.555,1.354,2.01,1.967L71.444,11.94z M72.898,10.643c-0.414-0.57-1.254-1.425-1.967-1.953l0.37-0.37
		c0.713,0.527,1.582,1.354,2.01,1.967L72.898,10.643z"/>
	<path fill="#FFFFFF" d="M86.068,9.546c-0.043,0.171-0.186,0.256-0.398,0.271c-0.172,1.055-0.385,2.066-0.643,2.979
		c0.812,0.328,1.64,0.713,2.494,1.126l-0.342,0.713c-0.812-0.413-1.596-0.784-2.365-1.111c-0.684,2.138-1.696,3.648-3.264,4.674
		c-0.156-0.156-0.385-0.327-0.57-0.456c1.539-1.025,2.508-2.365,3.164-4.518c-1.568-0.627-3.008-1.055-4.147-1.14
		c-0.954,3.548-1.753,4.632-3.491,4.632c-1.611,0-1.967-1.24-1.967-2.124c0-2.194,2.266-3.178,4.902-3.207
		c0.313-1.183,0.599-2.665,0.812-4.29c-0.642,0.057-3.107,0.228-4.19,0.285c-0.057,0.1-0.157,0.171-0.284,0.2l-0.101-0.898
		c1.098-0.057,3.819-0.228,4.731-0.299c0.157-0.014,0.199-0.085,0.285-0.143l0.699,0.456c-0.072,0.1-0.172,0.157-0.343,0.2
		c-0.242,1.682-0.569,3.292-0.869,4.532c1.154,0.086,2.594,0.484,4.161,1.098c0.242-0.897,0.456-1.995,0.613-3.207L86.068,9.546z
		 M79.271,12.054c-2.224,0.043-4.048,0.898-4.048,2.522c0,0.87,0.428,1.469,1.184,1.469C77.574,16.045,78.315,15.646,79.271,12.054z
		"/>
</g>
</svg>
