<?xml version="1.0" encoding="utf-8"?>
<!-- Generator: Adobe Illustrator 15.0.0, SVG Export Plug-In . SVG Version: 6.00 Build 0)  -->
<!DOCTYPE svg PUBLIC "-//W3C//DTD SVG 1.1//EN" "http://www.w3.org/Graphics/SVG/1.1/DTD/svg11.dtd">
<svg version="1.1" id="レイヤー_1" xmlns="http://www.w3.org/2000/svg" xmlns:xlink="http://www.w3.org/1999/xlink" x="0px"
	 y="0px" width="120px" height="23px" viewBox="0 0 120 23" enable-background="new 0 0 120 23" xml:space="preserve">
<g>
	<path fill="#FFFFFF" d="M22.479,8.153c-0.048-0.136-0.12-0.288-0.208-0.456l-0.992,0.04v3.479h-0.359V7.752
		c-0.488,0.024-0.936,0.04-1.288,0.049c-0.008,0.063-0.056,0.088-0.104,0.104L19.4,7.433l0.584-0.008
		c0.2-0.225,0.399-0.488,0.607-0.776c-0.248-0.352-0.695-0.831-1.095-1.183l0.208-0.24c0.088,0.072,0.176,0.152,0.264,0.232
		c0.296-0.472,0.656-1.16,0.855-1.64l0.448,0.2c-0.032,0.048-0.088,0.064-0.152,0.056c-0.216,0.472-0.6,1.144-0.912,1.607
		c0.232,0.231,0.448,0.472,0.6,0.672c0.384-0.552,0.752-1.151,1.008-1.632l0.448,0.216c-0.024,0.032-0.08,0.064-0.16,0.064
		c-0.424,0.703-1.119,1.711-1.719,2.414c0.528,0,1.12-0.016,1.719-0.023c-0.176-0.296-0.384-0.6-0.583-0.855l0.312-0.145
		c0.392,0.496,0.808,1.16,0.976,1.592L22.479,8.153z M20.456,8.512c-0.016,0.057-0.064,0.08-0.152,0.08
		c-0.12,0.688-0.32,1.455-0.568,1.919c-0.08-0.048-0.216-0.112-0.304-0.151c0.248-0.456,0.432-1.231,0.552-1.968L20.456,8.512z
		 M22.062,8.369c0.248,0.495,0.48,1.135,0.56,1.551c-0.048,0.024-0.096,0.04-0.336,0.112c-0.072-0.416-0.296-1.071-0.536-1.56
		L22.062,8.369z M26.9,7.329h-1.575c0.144,1.936,0.448,3.391,1.08,3.511h0.008c0.144,0,0.256-0.536,0.328-1.319
		c0.08,0.08,0.208,0.16,0.304,0.199c-0.112,1.04-0.304,1.512-0.632,1.512c-0.048,0-0.104-0.008-0.16-0.032
		c-0.815-0.191-1.136-1.743-1.288-3.87h-1.527v3.11c0.543-0.104,1.151-0.224,1.751-0.344l0.032,0.336
		c-0.935,0.208-1.903,0.408-2.526,0.536c0,0.048-0.04,0.088-0.088,0.104l-0.2-0.439c0.192-0.032,0.408-0.072,0.648-0.12V4.586
		l0.288,0.104c1.072-0.232,2.247-0.56,2.895-0.872l0.392,0.32c-0.016,0.024-0.032,0.024-0.136,0.024
		c-0.312,0.128-0.711,0.256-1.151,0.384h0.024c-0.008,0.048-0.056,0.088-0.152,0.104c0.016,0.799,0.04,1.575,0.088,2.303H26.9V7.329
		z M23.438,6.954h1.495c-0.04-0.712-0.072-1.479-0.088-2.271c-0.464,0.12-0.943,0.225-1.407,0.32V6.954z"/>
	<path fill="#FFFFFF" d="M31.566,8.64c0.2,0.416,0.479,0.784,0.823,1.096c0.536-0.264,1.224-0.647,1.623-0.936l0.384,0.256
		c-0.032,0.04-0.088,0.056-0.152,0.04c-0.416,0.264-1.063,0.607-1.607,0.848c0.607,0.472,1.375,0.791,2.271,0.959
		c-0.088,0.08-0.184,0.225-0.24,0.328c-1.647-0.352-2.862-1.216-3.47-2.566c-0.359,0.279-0.815,0.543-1.311,0.775l0.12,0.032
		c-0.008,0.04-0.056,0.08-0.136,0.08v1.095c0.648-0.08,1.383-0.168,2.103-0.248l0.008,0.312c-1.111,0.16-2.303,0.304-3.046,0.392
		c-0.008,0.063-0.048,0.096-0.096,0.12l-0.2-0.448l0.848-0.088V9.624c-0.592,0.248-1.215,0.456-1.767,0.584
		c-0.056-0.088-0.16-0.232-0.24-0.304C28.551,9.68,29.855,9.2,30.686,8.64h-3.078V8.289h3.382V7.665l0.528,0.04
		c-0.008,0.048-0.048,0.08-0.144,0.097v0.487h3.43V8.64H31.566z M29.479,6.194v-0.52h-1.911v-0.32h1.911V4.747h-1.071
		c-0.104,0.208-0.224,0.399-0.336,0.552C28,5.25,27.872,5.186,27.784,5.146c0.24-0.312,0.472-0.807,0.632-1.295l0.44,0.136
		c-0.016,0.048-0.072,0.072-0.152,0.072c-0.04,0.12-0.096,0.248-0.152,0.375h0.928V3.819l0.496,0.032
		c-0.008,0.048-0.048,0.08-0.136,0.096v0.488h1.519v0.312h-1.519v0.607h1.847v0.32h-1.847v0.52h1.543v1.039
		c0,0.376-0.224,0.392-0.927,0.392c-0.016-0.096-0.08-0.208-0.128-0.304c0.312,0.008,0.527,0.008,0.607,0.008
		c0.072-0.008,0.088-0.031,0.088-0.096V6.505h-1.183v1.399h-0.36V6.505h-1.127v1.167h-0.336V6.194H29.479z M32.669,4.227
		c-0.008,0.048-0.04,0.08-0.136,0.096v2.774h-0.368v-2.91L32.669,4.227z M34.604,3.939c-0.008,0.048-0.04,0.088-0.136,0.096v3.294
		c0,0.256-0.064,0.36-0.256,0.424c-0.192,0.064-0.56,0.064-1.135,0.064c-0.024-0.104-0.08-0.248-0.136-0.344
		c0.248,0,0.464,0.008,0.64,0.008c0.488,0,0.52,0,0.52-0.152V3.907L34.604,3.939z"/>
	<path fill="#FFFFFF" d="M36.983,8.712c-0.4,0.271-0.824,0.52-1.248,0.735c-0.048-0.088-0.152-0.231-0.224-0.312
		c1.399-0.688,2.806-1.815,3.47-2.791l0.616,0.04c-0.016,0.057-0.072,0.08-0.144,0.097c0.784,0.935,2.255,1.998,3.502,2.559
		c-0.088,0.088-0.184,0.231-0.248,0.335c-0.416-0.199-0.863-0.455-1.295-0.743v2.543h-0.392v-0.256h-3.662v0.304h-0.375V8.712z
		 M38.358,5.722c-0.024,0.048-0.08,0.063-0.16,0.063c-0.536,0.616-1.352,1.256-2.071,1.663c-0.063-0.071-0.184-0.216-0.264-0.288
		c0.696-0.367,1.527-0.983,2.031-1.631L38.358,5.722z M36.255,5.018V5.97h-0.384V4.651h3.11v-0.84l0.536,0.04
		c-0.008,0.048-0.048,0.088-0.144,0.096v0.704h3.158V5.97H42.14V5.018H36.255z M41.253,8.529c-0.808-0.544-1.575-1.191-2.071-1.783
		c-0.424,0.56-1.127,1.207-1.935,1.783H41.253z M37.359,10.551h3.662V8.896h-3.662V10.551z M42.205,7.433
		c-0.464-0.472-1.399-1.191-2.183-1.663l0.264-0.24c0.775,0.464,1.727,1.159,2.19,1.631L42.205,7.433z"/>
	<path fill="#FFFFFF" d="M50.812,7.457h-2.471c0.632,0.632,1.687,1.16,2.687,1.399c-0.096,0.08-0.2,0.216-0.264,0.32
		c-0.208-0.057-0.416-0.128-0.624-0.208v2.223h-0.375v-0.296h-1.783v0.336h-0.36V8.632h1.775c-0.608-0.319-1.151-0.728-1.535-1.176
		h-1.328c-0.408,0.448-0.935,0.84-1.551,1.176h1.791v2.559h-0.368v-0.296h-1.759v0.336h-0.36V8.968
		c-0.192,0.08-0.4,0.16-0.607,0.231c-0.048-0.08-0.168-0.224-0.248-0.287c1.047-0.36,1.943-0.84,2.59-1.456h-2.431V7.097h2.767
		c0.224-0.264,0.4-0.56,0.536-0.871l0.488,0.119c-0.008,0.048-0.072,0.08-0.16,0.088c-0.104,0.232-0.24,0.456-0.392,0.664h3.982
		V7.457z M46.734,4.203v2.175h-2.559V4.203H46.734z M46.351,6.034V4.546h-1.799v1.487H46.351z M46.406,10.543v-1.56h-1.759v1.56
		H46.406z M50.276,4.203v2.175h-2.575V4.203H50.276z M47.981,10.543h1.783v-1.56h-1.783V10.543z M49.893,6.034V4.546h-1.823v1.487
		H49.893z"/>
	<path fill="#FFFFFF" d="M58.268,4.819C58.26,4.858,58.26,4.922,58.26,4.962c-0.088,2.895-0.168,3.854-0.416,4.142
		c-0.168,0.208-0.312,0.232-0.816,0.232c-0.231,0-0.512-0.009-0.808-0.024c-0.008-0.12-0.048-0.28-0.12-0.384
		c0.488,0.04,0.936,0.048,1.095,0.048c0.144,0,0.232-0.016,0.304-0.104c0.192-0.216,0.28-1.128,0.36-3.687h-4.565
		c-0.448,0.775-0.983,1.487-1.527,1.999c-0.072-0.08-0.216-0.191-0.312-0.256c0.808-0.712,1.591-1.919,2.071-3.15l0.512,0.16
		c-0.024,0.056-0.08,0.08-0.168,0.08c-0.112,0.264-0.24,0.527-0.375,0.791h4.557L58.268,4.819z M53.031,10.311
		c0,0.328,0.176,0.416,1.063,0.416h3.366c0.768,0,0.887-0.184,0.959-1.175c0.112,0.063,0.271,0.128,0.384,0.151
		c-0.096,1.128-0.288,1.399-1.352,1.399H54.15c-1.167,0-1.511-0.128-1.511-0.8v-2.15h2.911V6.522h-2.886v-0.36h3.294V8.52h-2.926
		V10.311z"/>
	<path fill="#FFFFFF" d="M63.542,8.52c0.239,0.424,0.552,0.808,0.935,1.151c0.504-0.247,1.145-0.623,1.52-0.896l0.385,0.265
		c-0.033,0.031-0.088,0.048-0.152,0.04c-0.384,0.231-1.008,0.56-1.52,0.783c0.624,0.496,1.383,0.855,2.215,1.056
		c-0.088,0.079-0.191,0.224-0.248,0.327c-1.551-0.424-2.846-1.398-3.525-2.727h-0.008c-0.353,0.32-0.809,0.624-1.312,0.896
		l0.16,0.04c-0.008,0.048-0.047,0.08-0.135,0.097v1.055c0.695-0.088,1.479-0.184,2.238-0.287l0.008,0.312
		c-1.248,0.184-2.591,0.376-3.422,0.479c0,0.064-0.041,0.096-0.088,0.112l-0.192-0.44c0.304-0.031,0.672-0.079,1.079-0.128V9.6
		c-0.584,0.279-1.199,0.52-1.75,0.671c-0.056-0.104-0.16-0.231-0.24-0.304c1.063-0.264,2.342-0.823,3.143-1.447h-3.039V8.184h3.398
		V7.449l0.527,0.04c-0.008,0.048-0.048,0.08-0.144,0.096v0.6h3.438V8.52H63.542z M59.504,6.761c0.432-0.144,1.031-0.384,1.655-0.624
		l0.063,0.312c-0.527,0.224-1.071,0.439-1.423,0.575c0.008,0.057-0.016,0.104-0.072,0.128L59.504,6.761z M60.04,4.331
		c0.368,0.24,0.8,0.592,1,0.848l-0.256,0.248c-0.199-0.256-0.624-0.624-0.991-0.872L60.04,4.331z M61.935,3.851
		c-0.008,0.048-0.04,0.088-0.136,0.096v3.638h-0.367V3.819L61.935,3.851z M64.334,6.921V5.41h-2.088V5.075h2.088V3.819l0.527,0.032
		c-0.008,0.056-0.049,0.088-0.137,0.096v1.128h2.119V5.41h-2.119v1.512h1.855v0.344h-4.054V6.921H64.334z"/>
	<path fill="#FFFFFF" d="M69.949,7.513c0,0.415-0.336,0.751-0.752,0.751c-0.415,0-0.751-0.336-0.751-0.751
		c0-0.416,0.336-0.752,0.751-0.752C69.63,6.761,69.949,7.113,69.949,7.513z"/>
	<path fill="#FFFFFF" d="M74.479,8.153c-0.049-0.136-0.12-0.288-0.208-0.456l-0.991,0.04v3.479H72.92V7.752
		c-0.488,0.024-0.936,0.04-1.288,0.049c-0.008,0.063-0.056,0.088-0.104,0.104L71.4,7.433l0.584-0.008
		c0.199-0.225,0.398-0.488,0.607-0.776c-0.248-0.352-0.695-0.831-1.096-1.183l0.208-0.24c0.088,0.072,0.176,0.152,0.264,0.232
		c0.296-0.472,0.655-1.16,0.855-1.64l0.448,0.2c-0.032,0.048-0.088,0.064-0.152,0.056c-0.216,0.472-0.6,1.144-0.912,1.607
		c0.232,0.231,0.448,0.472,0.6,0.672c0.385-0.552,0.752-1.151,1.008-1.632l0.448,0.216c-0.024,0.032-0.08,0.064-0.16,0.064
		c-0.424,0.703-1.119,1.711-1.72,2.414c0.528,0,1.12-0.016,1.72-0.023c-0.176-0.296-0.384-0.6-0.583-0.855l0.311-0.145
		c0.393,0.496,0.809,1.16,0.977,1.592L74.479,8.153z M72.455,8.512c-0.016,0.057-0.063,0.08-0.151,0.08
		c-0.12,0.688-0.319,1.455-0.567,1.919c-0.08-0.048-0.217-0.112-0.305-0.151c0.248-0.456,0.432-1.231,0.553-1.968L72.455,8.512z
		 M74.062,8.369c0.248,0.495,0.48,1.135,0.561,1.551c-0.049,0.024-0.097,0.04-0.336,0.112c-0.072-0.416-0.297-1.071-0.536-1.56
		L74.062,8.369z M78.9,7.329h-1.576c0.145,1.936,0.448,3.391,1.08,3.511h0.008c0.145,0,0.256-0.536,0.328-1.319
		c0.08,0.08,0.207,0.16,0.304,0.199c-0.112,1.04-0.304,1.512-0.632,1.512c-0.048,0-0.104-0.008-0.16-0.032
		c-0.814-0.191-1.135-1.743-1.287-3.87h-1.527v3.11c0.544-0.104,1.152-0.224,1.752-0.344l0.031,0.336
		c-0.936,0.208-1.902,0.408-2.526,0.536c0,0.048-0.04,0.088-0.088,0.104l-0.2-0.439c0.191-0.032,0.408-0.072,0.648-0.12V4.586
		l0.287,0.104c1.072-0.232,2.247-0.56,2.895-0.872l0.392,0.32c-0.016,0.024-0.032,0.024-0.136,0.024
		c-0.312,0.128-0.711,0.256-1.151,0.384h0.024c-0.008,0.048-0.057,0.088-0.152,0.104c0.016,0.799,0.04,1.575,0.088,2.303h1.6V7.329z
		 M75.438,6.954h1.496c-0.041-0.712-0.072-1.479-0.088-2.271c-0.465,0.12-0.943,0.225-1.408,0.32V6.954z"/>
	<path fill="#FFFFFF" d="M82.095,5.234c-0.017,0.064-0.088,0.104-0.2,0.112c-0.32,1.943-0.991,3.974-1.935,5.141
		c-0.104-0.079-0.256-0.151-0.384-0.207c0.896-1.072,1.631-3.158,1.902-5.174L82.095,5.234z M86.372,10.448
		C85.98,9,85.021,6.713,84.182,5.266l0.367-0.184c0.848,1.415,1.808,3.702,2.223,5.205L86.372,10.448z M86.101,3.675
		c0.495,0,0.903,0.408,0.903,0.911c0,0.496-0.408,0.903-0.903,0.903c-0.504,0-0.911-0.407-0.911-0.903
		C85.189,4.067,85.613,3.675,86.101,3.675z M86.748,4.586c0-0.368-0.287-0.664-0.647-0.664s-0.655,0.296-0.655,0.664
		c0,0.352,0.295,0.656,0.655,0.656C86.477,5.243,86.748,4.922,86.748,4.586z"/>
	<path fill="#FFFFFF" d="M88.455,6.186c0.24,0.503,0.512,1.279,0.607,1.734l-0.336,0.088c-0.096-0.455-0.352-1.191-0.6-1.703
		L88.455,6.186z M93.261,6.209c-0.017,0.057-0.072,0.072-0.151,0.072c-0.616,2.326-1.76,3.766-3.742,4.565
		c-0.049-0.072-0.16-0.216-0.225-0.28c1.975-0.783,3.031-2.118,3.639-4.501L93.261,6.209z M90.406,5.793
		c0.168,0.552,0.312,1.319,0.367,1.831L90.43,7.681c-0.056-0.496-0.191-1.239-0.375-1.808L90.406,5.793z"/>
	<path fill="#FFFFFF" d="M100.141,5.506c-0.024,0.04-0.064,0.08-0.104,0.104c-0.808,2.583-2.143,4.27-4.374,5.405
		c-0.063-0.104-0.176-0.232-0.279-0.32c2.127-1.047,3.471-2.718,4.15-4.949h-3.031c-0.479,0.768-1.096,1.455-1.814,2.031
		c-0.088-0.08-0.217-0.192-0.328-0.264c1.104-0.855,1.99-2.079,2.566-3.502l0.568,0.184c-0.024,0.072-0.112,0.096-0.217,0.096
		c-0.168,0.376-0.344,0.728-0.535,1.063h2.998l0.08-0.032L100.141,5.506z"/>
	<path fill="#FFFFFF" d="M31.144,18.863c1.783,0.199,3.886,0.664,5.101,1.152l-0.168,0.406c-1.119-0.479-3.278-0.967-5.053-1.174
		L31.144,18.863z M31.791,16.385c1.303,0.129,2.887,0.4,3.886,0.695l-0.136,0.408c-0.951-0.305-2.55-0.584-3.862-0.711
		L31.791,16.385z M31.847,13.867c1.351,0.15,3.07,0.455,4.182,0.846l-0.152,0.4c-1.095-0.391-2.798-0.703-4.158-0.855L31.847,13.867
		z"/>
	<path fill="#FFFFFF" d="M38.255,15.785c0.24,0.504,0.512,1.279,0.608,1.734l-0.336,0.088c-0.096-0.455-0.352-1.191-0.6-1.703
		L38.255,15.785z M43.061,15.809c-0.016,0.057-0.072,0.072-0.152,0.072c-0.616,2.326-1.759,3.766-3.742,4.566
		c-0.048-0.072-0.16-0.217-0.224-0.281c1.975-0.783,3.03-2.117,3.638-4.5L43.061,15.809z M40.206,15.393
		c0.168,0.553,0.312,1.32,0.368,1.832l-0.344,0.057c-0.056-0.496-0.192-1.24-0.376-1.809L40.206,15.393z"/>
	<path fill="#FFFFFF" d="M49.94,15.105c-0.024,0.041-0.064,0.08-0.104,0.104c-0.808,2.584-2.143,4.27-4.374,5.406
		c-0.064-0.105-0.176-0.232-0.28-0.32c2.127-1.047,3.47-2.719,4.15-4.949h-3.03c-0.48,0.768-1.096,1.455-1.815,2.031
		c-0.088-0.08-0.216-0.193-0.328-0.264c1.104-0.855,1.991-2.08,2.566-3.502l0.568,0.184c-0.024,0.072-0.112,0.096-0.216,0.096
		c-0.168,0.375-0.344,0.727-0.536,1.062h2.998l0.08-0.031L49.94,15.105z"/>
	<path fill="#FFFFFF" d="M56.117,14.434c-0.024,0.041-0.048,0.064-0.096,0.072c-0.432,1.008-0.976,1.943-1.639,2.791
		c0.903,0.719,2.271,1.951,3.022,2.789l-0.352,0.297c-0.736-0.84-2.063-2.078-2.935-2.766c-0.688,0.863-1.959,2.102-3.166,2.773
		c-0.064-0.088-0.192-0.232-0.296-0.32c2.287-1.254,4.078-3.645,4.805-5.404h-4.038v-0.4h4.253l0.08-0.031L56.117,14.434z"/>
	<path fill="#FFFFFF" d="M58.144,17.607c0.624-0.646,1.943-2.117,2.383-2.574c0.176-0.176,0.367-0.264,0.559-0.264
		c0.185,0,0.377,0.088,0.568,0.256c1.063,0.984,2.719,2.848,3.966,4.486l-0.353,0.303c-1.183-1.646-2.854-3.541-3.821-4.438
		c-0.136-0.119-0.239-0.184-0.352-0.184c-0.097,0-0.2,0.072-0.319,0.184c-0.417,0.432-1.656,1.832-2.191,2.416
		c0.016,0.07-0.008,0.15-0.064,0.207L58.144,17.607z M64.213,13.531c0.504,0,0.903,0.398,0.903,0.91
		c0,0.496-0.399,0.896-0.903,0.896s-0.903-0.4-0.903-0.896C63.31,13.914,63.725,13.531,64.213,13.531z M64.869,14.441
		c0-0.375-0.297-0.662-0.656-0.662s-0.656,0.287-0.656,0.662c0,0.352,0.297,0.656,0.656,0.656
		C64.589,15.098,64.869,14.777,64.869,14.441z"/>
	<path fill="#FFFFFF" d="M66.416,16.76h6.676v0.416h-6.389c-0.039,0.08-0.143,0.137-0.239,0.145L66.416,16.76z"/>
	<path fill="#FFFFFF" d="M76.615,14.834c-0.017,0.064-0.088,0.104-0.201,0.111c-0.319,1.943-0.99,3.975-1.934,5.141
		c-0.104-0.078-0.256-0.15-0.385-0.207c0.896-1.072,1.631-3.158,1.903-5.174L76.615,14.834z M80.893,20.047
		c-0.393-1.447-1.352-3.734-2.191-5.182l0.368-0.184c0.848,1.416,1.808,3.703,2.223,5.205L80.893,20.047z M80.621,13.275
		c0.495,0,0.902,0.406,0.902,0.91c0,0.496-0.407,0.904-0.902,0.904c-0.504,0-0.912-0.408-0.912-0.904
		C79.709,13.666,80.133,13.275,80.621,13.275z M81.268,14.186c0-0.367-0.287-0.662-0.646-0.662c-0.36,0-0.656,0.295-0.656,0.662
		c0,0.352,0.296,0.656,0.656,0.656C80.996,14.842,81.268,14.521,81.268,14.186z"/>
	<path fill="#FFFFFF" d="M82.256,16.76h6.676v0.416h-6.389c-0.039,0.08-0.143,0.137-0.239,0.145L82.256,16.76z"/>
</g>
</svg>
