<?xml version="1.0" encoding="utf-8"?>
<!-- Generator: Adobe Illustrator 15.0.0, SVG Export Plug-In . SVG Version: 6.00 Build 0)  -->
<!DOCTYPE svg PUBLIC "-//W3C//DTD SVG 1.1//EN" "http://www.w3.org/Graphics/SVG/1.1/DTD/svg11.dtd">
<svg version="1.1" id="レイヤー_1" xmlns="http://www.w3.org/2000/svg" xmlns:xlink="http://www.w3.org/1999/xlink" x="0px"
	 y="0px" width="120px" height="23px" viewBox="0 0 120 23" enable-background="new 0 0 120 23" xml:space="preserve">
<g>
	<path fill="#FFFFFF" d="M24.892,12.154v4.788h3.934v-3.791l0.955,0.071c-0.014,0.086-0.085,0.157-0.242,0.171v5.188h-0.712v-0.954
		h-8.423v1.012h-0.684v-5.487l0.94,0.071c-0.014,0.086-0.085,0.157-0.256,0.171v3.549h3.791v-4.788h-6.071V11.47h6.071V7.992H20.93
		c-0.499,1.183-1.112,2.238-1.81,2.993c-0.143-0.114-0.399-0.299-0.57-0.399c1.083-1.154,1.981-3.135,2.494-5.188l0.941,0.257
		c-0.057,0.1-0.157,0.142-0.285,0.128C21.557,6.296,21.4,6.81,21.215,7.308h8.693v0.684h-5.017v3.478h6.157v0.685H24.892z"/>
	<path fill="#FFFFFF" d="M36.608,12.054c0,0.741-0.598,1.34-1.339,1.34s-1.34-0.599-1.34-1.34c0-0.741,0.599-1.339,1.34-1.339
		C36.039,10.714,36.608,11.341,36.608,12.054z"/>
	<path fill="#FFFFFF" d="M39.646,7.508c2.095-0.143,4.133-0.413,5.159-1.14l0.527,0.513c-0.897,0.513-4.019,3.648-4.019,7.098
		c0,2.607,1.867,3.392,3.748,3.392c3.748,0,3.748-2.879,3.748-4.048c0-1.938-0.299-4.104-1.026-5.672l0.684-0.328
		c0.869,2.167,2.58,3.706,4.004,4.204l-0.299,0.713c-1.183-0.413-2.537-1.625-3.05-2.565h-0.014
		c0.313,1.326,0.428,2.779,0.428,3.891c0,0.2-0.014,0.385-0.014,0.556c-0.1,2.423-1.667,3.963-4.447,3.963
		c-2.352,0-4.489-1.055-4.489-4.033c0-2.067,1.112-4.575,2.921-6.457c-0.755,0.228-2.066,0.499-3.506,0.599
		c-0.028,0.1-0.114,0.214-0.242,0.214L39.646,7.508z M50.534,8.206c-0.413-0.641-1.126-1.439-1.924-2.023l0.399-0.356
		c0.827,0.627,1.553,1.368,1.981,2.038L50.534,8.206z M52.358,7.437c-0.47-0.698-1.154-1.396-1.91-1.981l0.385-0.371
		c0.827,0.627,1.511,1.297,1.967,2.01L52.358,7.437z"/>
	<path fill="#FFFFFF" d="M53.514,17.727c1.126-3.179,2.865-8.152,3.435-9.749c0.285-0.741,0.627-1.739,0.712-2.038l1.24,0.328
		c-0.071,0.199-0.313,0.242-0.556,0.228c-0.841,2.18-2.081,5.629-2.623,7.083h0.015c0.869-1.111,2.237-1.967,3.306-1.967
		c1.211,0,1.782,0.784,1.782,2.052c0,0.271-0.043,1.554-0.043,1.839c0,1.126,0.641,1.781,1.682,1.781
		c1.354,0,2.65-1.539,3.334-4.047c0.2,0.143,0.457,0.256,0.67,0.355c-0.755,2.723-2.209,4.433-4.047,4.433
		c-1.439,0-2.395-0.897-2.395-2.337c0-0.271,0.043-1.625,0.043-1.924c0-0.941-0.442-1.469-1.155-1.469
		c-1.738,0-3.491,2.509-3.819,3.335c-0.199,0.485-0.556,1.469-0.841,2.338L53.514,17.727z"/>
	<path fill="#FFFFFF" d="M71.814,12.054c0,0.741-0.598,1.34-1.339,1.34s-1.34-0.599-1.34-1.34c0-0.741,0.599-1.339,1.34-1.339
		C71.245,10.714,71.814,11.341,71.814,12.054z"/>
	<path fill="#FFFFFF" d="M81.821,5.484c-0.015,0.1-0.128,0.157-0.242,0.186c1.368,1.938,3.991,4.09,6.228,5.216
		c-0.17,0.157-0.355,0.385-0.47,0.584c-2.252-1.24-4.86-3.377-6.228-5.302c-1.184,1.81-3.592,4.019-6.086,5.416
		c-0.1-0.143-0.285-0.385-0.428-0.542c2.508-1.354,5.002-3.648,6.143-5.629L81.821,5.484z M81.465,13.579v3.919h5.93v0.642H74.952
		v-0.642h5.8v-3.919h-5.173v-0.642h5.173v-2.209h-3.191v-0.655h7.24v0.655h-3.336v2.209h5.316v0.642H81.465z M78.358,17.128
		c-0.186-0.77-0.77-1.924-1.397-2.779l0.585-0.214c0.612,0.841,1.226,1.981,1.411,2.736L78.358,17.128z M85.484,14.448
		c-0.029,0.086-0.129,0.114-0.271,0.114c-0.412,0.755-1.125,1.853-1.682,2.579l-0.527-0.271c0.557-0.741,1.283-1.952,1.682-2.793
		L85.484,14.448z"/>
	<path fill="#FFFFFF" d="M94.293,12.581l0.058,0.599c-0.728,0.171-1.454,0.328-2.152,0.484v4.975h-0.685v-4.832
		c-0.826,0.186-1.596,0.343-2.18,0.471c-0.014,0.1-0.086,0.171-0.172,0.199l-0.312-0.841c0.727-0.128,1.652-0.299,2.664-0.498V9.247
		h-1.596c-0.143,0.883-0.328,1.696-0.556,2.309c-0.143-0.086-0.385-0.214-0.542-0.286c0.428-1.154,0.67-3.135,0.842-5.017
		l0.869,0.186c-0.029,0.1-0.1,0.143-0.271,0.157c-0.057,0.641-0.143,1.325-0.242,1.981h1.496V5.484l0.928,0.071
		c-0.016,0.085-0.086,0.157-0.243,0.171v2.85h1.981v0.67h-1.981v3.762L94.293,12.581z M101.248,8.334l0.385,0.042l-0.043,0.257
		c-0.285,6.755-0.527,8.922-1.082,9.577c-0.314,0.413-0.628,0.47-1.383,0.47c-0.328,0-0.741-0.014-1.141-0.042
		c-0.014-0.214-0.086-0.514-0.199-0.698c0.698,0.057,1.325,0.071,1.582,0.071c0.256,0,0.398-0.043,0.541-0.229
		c0.442-0.513,0.727-2.693,0.998-8.779h-1.34c-0.456,3.591-1.482,7.667-3.064,9.663c-0.156-0.114-0.412-0.271-0.612-0.356
		c1.597-1.881,2.622-5.801,3.078-9.306h-1.481c-0.542,3.007-1.696,6.499-3.179,8.266c-0.157-0.129-0.413-0.285-0.627-0.356
		c1.468-1.653,2.622-4.96,3.179-7.91h-1.354c-0.399,1.268-0.897,2.394-1.468,3.235c-0.129-0.114-0.385-0.299-0.542-0.399
		c1.013-1.425,1.739-3.876,2.152-6.398l0.897,0.199c-0.014,0.1-0.113,0.143-0.271,0.143c-0.157,0.87-0.343,1.739-0.585,2.565h5.388
		L101.248,8.334z"/>
</g>
</svg>
