<?xml version="1.0" encoding="utf-8"?>
<!-- Generator: Adobe Illustrator 15.0.0, SVG Export Plug-In . SVG Version: 6.00 Build 0)  -->
<!DOCTYPE svg PUBLIC "-//W3C//DTD SVG 1.1//EN" "http://www.w3.org/Graphics/SVG/1.1/DTD/svg11.dtd">
<svg version="1.1" id="レイヤー_1" xmlns="http://www.w3.org/2000/svg" xmlns:xlink="http://www.w3.org/1999/xlink" x="0px"
	 y="0px" width="120px" height="23px" viewBox="0 0 120 23" enable-background="new 0 0 120 23" xml:space="preserve">
<g>
	<path fill="#FFFFFF" d="M19.419,7.607h9.107l0.085-0.014l0.755,0.599c-0.029,0.057-0.071,0.085-0.143,0.114
		c-1.112,5.345-3.605,8.224-7.981,9.848c-0.114-0.171-0.313-0.455-0.456-0.612c4.233-1.554,6.641-4.247,7.61-9.207h-8.979V7.607z
		 M30.25,5.014c0.87,0,1.568,0.684,1.568,1.568c0,0.869-0.698,1.567-1.568,1.567c-0.869,0-1.567-0.698-1.567-1.567
		C28.683,5.669,29.41,5.014,30.25,5.014z M31.362,6.582c0-0.642-0.499-1.14-1.112-1.14c-0.613,0-1.111,0.499-1.111,1.14
		c0,0.613,0.499,1.126,1.111,1.126C30.892,7.708,31.362,7.166,31.362,6.582z"/>
	<path fill="#FFFFFF" d="M43.521,10.486c-0.043,0.043-0.1,0.085-0.157,0.1c-1.126,4.305-3.591,6.399-7.838,7.554
		c-0.1-0.199-0.285-0.456-0.414-0.613c3.962-0.997,6.399-3.021,7.368-6.598h-9.705v-0.712h10.019l0.114-0.071L43.521,10.486z
		 M42.267,7.251h-8.109V6.553h8.109V7.251z"/>
	<path fill="#FFFFFF" d="M47.855,14.191c-0.713,0.485-1.468,0.927-2.223,1.312c-0.086-0.156-0.271-0.413-0.399-0.556
		c2.494-1.226,5.002-3.235,6.186-4.974l1.097,0.071c-0.028,0.1-0.128,0.143-0.256,0.171c1.396,1.667,4.019,3.562,6.242,4.561
		c-0.157,0.156-0.328,0.413-0.442,0.599c-0.741-0.356-1.539-0.812-2.309-1.325v4.531h-0.699v-0.456h-6.527v0.542h-0.67V14.191z
		 M50.307,8.862c-0.042,0.085-0.143,0.114-0.285,0.114c-0.955,1.098-2.408,2.238-3.691,2.965c-0.114-0.129-0.328-0.385-0.47-0.514
		c1.24-0.655,2.722-1.753,3.62-2.907L50.307,8.862z M46.559,7.607v1.696h-0.684V6.952h5.544V5.456l0.955,0.071
		c-0.014,0.085-0.085,0.157-0.256,0.171v1.254h5.629v2.352h-0.698V7.607H46.559z M55.466,13.864
		c-1.439-0.97-2.808-2.124-3.691-3.178c-0.755,0.998-2.009,2.152-3.449,3.178H55.466z M48.525,17.47h6.527v-2.95h-6.527V17.47z
		 M57.162,11.911c-0.827-0.84-2.494-2.123-3.891-2.964l0.47-0.428c1.382,0.827,3.079,2.066,3.905,2.907L57.162,11.911z"/>
	<path fill="#FFFFFF" d="M72.498,11.954h-4.402c1.125,1.126,3.006,2.066,4.788,2.494c-0.171,0.143-0.356,0.385-0.471,0.57
		c-0.37-0.1-0.741-0.229-1.111-0.371v3.963h-0.67v-0.527h-3.179v0.598h-0.641V14.05h3.164c-1.084-0.57-2.053-1.298-2.736-2.096
		h-2.366c-0.727,0.798-1.667,1.497-2.765,2.096h3.192v4.561h-0.655v-0.527h-3.136v0.598h-0.642v-4.033
		c-0.342,0.143-0.712,0.285-1.083,0.414c-0.085-0.143-0.299-0.399-0.442-0.514c1.867-0.641,3.463-1.496,4.618-2.594h-4.333v-0.641
		h4.931c0.398-0.47,0.713-0.998,0.955-1.553l0.869,0.213c-0.014,0.085-0.129,0.143-0.285,0.157
		c-0.186,0.414-0.428,0.812-0.698,1.183h7.097V11.954z M65.23,6.154v3.876H60.67V6.154H65.23z M64.547,9.417V6.767H61.34v2.651
		H64.547z M64.646,17.455v-2.778h-3.136v2.778H64.646z M71.544,6.154v3.876h-4.589V6.154H71.544z M67.453,17.455h3.179v-2.778
		h-3.179V17.455z M70.859,9.417V6.767H67.61v2.651H70.859z"/>
	<path fill="#FFFFFF" d="M85.783,7.251C85.77,7.322,85.77,7.437,85.77,7.508c-0.158,5.159-0.3,6.869-0.742,7.383
		c-0.299,0.37-0.555,0.413-1.453,0.413c-0.414,0-0.912-0.015-1.439-0.043c-0.014-0.214-0.086-0.499-0.214-0.685
		c0.869,0.071,1.667,0.086,1.952,0.086c0.257,0,0.414-0.028,0.542-0.186c0.342-0.385,0.499-2.009,0.642-6.57h-8.139
		c-0.797,1.382-1.752,2.651-2.722,3.563c-0.128-0.143-0.385-0.342-0.556-0.456c1.439-1.269,2.836-3.42,3.691-5.615l0.912,0.285
		c-0.043,0.1-0.143,0.143-0.299,0.143c-0.2,0.47-0.428,0.94-0.67,1.411h8.123L85.783,7.251z M76.448,17.042
		c0,0.585,0.313,0.741,1.896,0.741h6c1.368,0,1.582-0.328,1.71-2.095c0.2,0.114,0.485,0.228,0.685,0.271
		c-0.172,2.01-0.514,2.494-2.408,2.494h-5.887c-2.08,0-2.693-0.229-2.693-1.425v-3.834h5.188v-2.907h-5.145V9.646h5.871v4.204
		h-5.216V17.042z"/>
	<path fill="#FFFFFF" d="M95.178,13.85c0.427,0.756,0.982,1.439,1.667,2.053c0.897-0.442,2.038-1.112,2.708-1.597l0.684,0.471
		c-0.057,0.057-0.156,0.085-0.271,0.071c-0.685,0.413-1.796,0.997-2.708,1.396c1.111,0.884,2.466,1.524,3.947,1.881
		c-0.156,0.143-0.342,0.399-0.441,0.585c-2.765-0.756-5.073-2.494-6.285-4.86h-0.014c-0.627,0.57-1.439,1.112-2.338,1.597
		l0.285,0.071c-0.014,0.085-0.086,0.143-0.242,0.171v1.881c1.24-0.156,2.637-0.328,3.99-0.513l0.015,0.556
		c-2.224,0.328-4.618,0.67-6.1,0.855c0,0.113-0.071,0.171-0.157,0.199l-0.342-0.784c0.541-0.057,1.197-0.143,1.924-0.228v-1.882
		c-1.04,0.499-2.138,0.927-3.121,1.197c-0.1-0.185-0.285-0.413-0.428-0.541c1.896-0.471,4.176-1.468,5.602-2.58h-5.416v-0.599h6.057
		V11.94l0.941,0.071c-0.015,0.085-0.086,0.143-0.257,0.171v1.068h6.128v0.599H95.178z M87.98,10.714
		c0.77-0.256,1.838-0.684,2.949-1.112l0.114,0.556c-0.94,0.399-1.909,0.784-2.536,1.026c0.014,0.1-0.029,0.186-0.129,0.228
		L87.98,10.714z M88.936,6.382c0.654,0.428,1.424,1.055,1.781,1.511L90.26,8.334c-0.355-0.456-1.111-1.112-1.767-1.554L88.936,6.382
		z M92.312,5.527c-0.014,0.085-0.071,0.157-0.242,0.171v6.485h-0.656V5.47L92.312,5.527z M96.588,11V8.306h-3.72V7.708h3.72V5.47
		l0.941,0.057c-0.015,0.1-0.086,0.157-0.242,0.171v2.01h3.775v0.598h-3.775V11h3.306v0.613h-7.226V11H96.588z"/>
</g>
</svg>
