<?xml version="1.0" encoding="utf-8"?>
<!-- Generator: Adobe Illustrator 15.0.0, SVG Export Plug-In . SVG Version: 6.00 Build 0)  -->
<!DOCTYPE svg PUBLIC "-//W3C//DTD SVG 1.1//EN" "http://www.w3.org/Graphics/SVG/1.1/DTD/svg11.dtd">
<svg version="1.1" id="レイヤー_1" xmlns="http://www.w3.org/2000/svg" xmlns:xlink="http://www.w3.org/1999/xlink" x="0px"
	 y="0px" width="120px" height="23px" viewBox="0 0 120 23" enable-background="new 0 0 120 23" xml:space="preserve">
<g>
	<path fill="#FFFFFF" d="M9.038,12.664c0.407,0.297,1.639,1.331,1.925,1.585l-0.341,0.439c-0.275-0.319-1.056-1.045-1.584-1.496
		v3.18H8.521v-3.389c-0.561,0.979-1.331,1.914-2.002,2.453c-0.099-0.132-0.253-0.308-0.363-0.396
		c0.781-0.551,1.683-1.661,2.222-2.729H6.331v-0.495h2.189v-1.299H6.188v-0.483h5.314v0.483h-2.41L9.038,10.53v1.287h2.31v0.495
		h-2.31V12.664z M11.271,7.482v0.484H6.408V7.482h2.112V6.207l0.715,0.055C9.225,6.328,9.169,6.382,9.038,6.394v1.089H11.271z
		 M7.563,8.077C7.838,8.638,8.047,9.386,8.103,9.87l-0.473,0.132C7.574,9.518,7.376,8.759,7.123,8.187L7.563,8.077z M10.655,8.275
		c-0.033,0.055-0.099,0.088-0.209,0.088c-0.154,0.484-0.44,1.21-0.671,1.672c0,0-0.407-0.154-0.418-0.154
		c0.22-0.484,0.517-1.298,0.649-1.837L10.655,8.275z M16.354,10.035v0.506h-1.375v5.842H14.45v-5.842h-1.958v0.583
		c0,1.65-0.209,3.752-1.815,5.281c-0.066-0.121-0.253-0.319-0.385-0.396c1.507-1.397,1.684-3.312,1.684-4.896V7.263l0.462,0.165
		c1.21-0.319,2.508-0.771,3.224-1.177l0.572,0.418c-0.022,0.033-0.066,0.044-0.11,0.044c-0.033,0-0.055,0-0.088-0.011
		c-0.836,0.407-2.255,0.847-3.542,1.177v2.157H16.354z"/>
	<path fill="#FFFFFF" d="M21.677,10.266h-3.411v6.128h-0.528v-9.67h3.938V10.266z M21.16,7.174h-2.894v1.067h2.894V7.174z
		 M18.266,9.814h2.894V8.682h-2.894V9.814z M25.076,11.443h-0.913v4.697h-0.506v-0.979c-1.541,0.099-3.114,0.187-4.082,0.241
		c-0.011,0.089-0.077,0.121-0.154,0.133l-0.154-0.595l1.078-0.044v-3.454h-0.935v-0.451h5.666V11.443z M23.657,12.235v-0.792h-2.816
		v0.792H23.657z M23.657,13.479v-0.825h-2.816v0.825H23.657z M20.841,13.896v0.979c0.858-0.044,1.837-0.1,2.816-0.165v-0.814H20.841
		z M26.858,6.724v8.845c0,0.771-0.308,0.804-2.057,0.804c-0.022-0.154-0.099-0.407-0.187-0.562c0.682,0.011,1.298,0.011,1.474,0
		c0.187,0,0.242-0.055,0.242-0.242v-5.291h-3.51V6.724H26.858z M26.331,7.174h-2.993v1.067h2.993V7.174z M23.338,9.814h2.993V8.682
		h-2.993V9.814z"/>
	<path fill="#FFFFFF" d="M31.555,11.289c0,0.572-0.462,1.034-1.034,1.034c-0.572,0-1.034-0.462-1.034-1.034s0.462-1.034,1.034-1.034
		C31.115,10.255,31.555,10.739,31.555,11.289z"/>
	<path fill="#FFFFFF" d="M36.703,10.772c-0.011,0.065-0.066,0.109-0.198,0.132v1.089h1.991v0.495h-1.991v0.583
		c0.429,0.309,1.672,1.287,1.969,1.552l-0.341,0.418c-0.275-0.319-1.089-1.023-1.628-1.464v2.828h-0.506v-3.29
		c-0.561,1.001-1.364,2.003-2.124,2.618c-0.077-0.132-0.209-0.33-0.319-0.439c0.814-0.583,1.716-1.717,2.255-2.806H33.82v-0.495
		h2.178v-1.265L36.703,10.772z M36.846,7.945h-1.232c-0.088,1.078-0.429,2.244-1.628,3.202c-0.088-0.121-0.264-0.275-0.396-0.342
		c1.101-0.857,1.43-1.903,1.519-2.86H33.82V7.45h1.32V6.207l0.682,0.044c-0.011,0.066-0.066,0.11-0.187,0.132V7.45h1.694v2.289
		c0,0.176,0.011,0.197,0.143,0.197h0.308c0.154,0,0.187-0.109,0.198-1.276c0.11,0.099,0.297,0.165,0.44,0.209
		c-0.033,1.244-0.154,1.53-0.572,1.53h-0.44c-0.429,0-0.561-0.133-0.561-0.66V7.945z M43.854,15.25v0.506h-4.312v0.638h-0.506V9.881
		c-0.253,0.55-0.539,1.045-0.836,1.452c-0.077-0.088-0.264-0.23-0.385-0.308c0.814-1.09,1.507-2.949,1.915-4.819l0.682,0.176
		c-0.033,0.077-0.099,0.11-0.231,0.11c-0.154,0.627-0.33,1.266-0.539,1.881h1.694c0.242-0.605,0.506-1.463,0.638-2.057l0.671,0.198
		c-0.022,0.066-0.099,0.099-0.22,0.11c-0.132,0.484-0.363,1.188-0.583,1.749h1.892V8.88H41.84v1.771h1.771v0.495H41.84v1.793h1.771
		v0.495H41.84v1.815H43.854z M41.334,10.651V8.88h-1.793v1.771H41.334z M41.334,12.939v-1.793h-1.793v1.793H41.334z M39.541,13.435
		v1.815h1.793v-1.815H39.541z"/>
	<path fill="#FFFFFF" d="M48.572,8.077V8.55h-3.906V8.077H48.572z M45.161,10.035V9.562h3.113v0.474H45.161z M45.161,11.509v-0.462
		h3.113v0.462H45.161z M48.274,12.532v3.18h-2.629v0.55h-0.484v-3.729H48.274z M48.22,6.635v0.462h-3.003V6.635H48.22z
		 M47.791,13.005h-2.146v2.233h2.146V13.005z M49.914,13.148c-0.132,0.913-0.385,2.014-0.936,2.641l-0.418-0.309
		c0.495-0.561,0.759-1.584,0.88-2.464L49.914,13.148z M51.586,10.508V8.352H49V7.846h2.585v-1.65l0.737,0.055
		c-0.011,0.066-0.066,0.121-0.198,0.132v1.463h2.707v0.506h-2.707v2.156h2.486v0.506h-5.391v-0.506H51.586z M51.08,15.415
		c0,0.242,0.055,0.297,0.418,0.297h1.287c0.308,0,0.374-0.154,0.396-1.232c0.121,0.088,0.33,0.176,0.495,0.209
		c-0.066,1.222-0.22,1.519-0.836,1.519h-1.375c-0.726,0-0.913-0.154-0.913-0.792v-2.762l0.715,0.055
		c-0.011,0.066-0.066,0.11-0.187,0.133V15.415z M52.466,13.005c-0.374-0.439-1.167-1.056-1.859-1.463l0.341-0.33
		c0.693,0.385,1.497,0.979,1.881,1.419L52.466,13.005z M54.501,15.679c-0.176-0.726-0.693-1.815-1.254-2.607l0.462-0.198
		c0.583,0.804,1.1,1.87,1.287,2.597L54.501,15.679z"/>
	<path fill="#FFFFFF" d="M59.055,11.289c0,0.572-0.462,1.034-1.034,1.034c-0.572,0-1.034-0.462-1.034-1.034s0.462-1.034,1.034-1.034
		C58.615,10.255,59.055,10.739,59.055,11.289z"/>
	<path fill="#FFFFFF" d="M69.209,8.363c-0.022,0.055-0.066,0.077-0.121,0.099c-0.407,1.375-0.936,2.641-1.64,3.719
		c0.506,0.285,1.122,0.627,1.552,0.945l-0.342,0.507c-0.429-0.33-1.045-0.683-1.529-0.969c-1.033,1.452-2.311,2.607-4.037,3.411
		c-0.088-0.144-0.286-0.319-0.43-0.418c1.684-0.771,2.96-1.893,3.961-3.279c-0.891-0.495-1.771-0.913-2.651-1.231l0.308-0.451
		c0.869,0.308,1.771,0.726,2.674,1.221c0.627-0.957,1.122-2.068,1.441-3.201h-3.851c-0.693,1.221-1.585,2.354-2.52,3.113
		c-0.099-0.099-0.308-0.286-0.44-0.374c1.397-1.078,2.718-3.069,3.378-4.951l0.771,0.242c-0.045,0.099-0.133,0.132-0.275,0.121
		c-0.165,0.429-0.385,0.869-0.605,1.309h3.785l0.099-0.044L69.209,8.363z M68.284,6.261c0.539,0.407,1.177,1.067,1.519,1.562
		l-0.33,0.275c-0.319-0.451-0.99-1.155-1.508-1.54L68.284,6.261z M69.638,5.811c0.539,0.407,1.21,1.067,1.552,1.54l-0.342,0.264
		c-0.318-0.462-1.012-1.133-1.518-1.507L69.638,5.811z"/>
	<path fill="#FFFFFF" d="M72.431,7.46c1.155,0.363,2.486,0.935,3.3,1.519l-0.308,0.484c-0.804-0.572-2.101-1.144-3.245-1.529
		L72.431,7.46z M72.508,15.15c3.961-1.231,6.578-3.433,7.921-6.491c0.153,0.132,0.341,0.242,0.506,0.319
		c-1.375,3.014-4.081,5.369-7.833,6.589c-0.021,0.089-0.088,0.209-0.143,0.242L72.508,15.15z"/>
	<path fill="#FFFFFF" d="M84.904,11.256c-0.494,1.299-1.242,2.432-2.123,3.278l-0.462-0.318c0.858-0.792,1.606-1.859,2.058-3.158
		L84.904,11.256z M87.236,9.518v5.436c0,1.056-0.659,1.056-2.508,1.056c-0.021-0.154-0.099-0.385-0.188-0.55
		c0.287,0.011,0.595,0.011,0.869,0.011c0.375,0,0.683,0,0.781-0.011c0.309,0,0.474-0.221,0.474-0.495V9.518h-3.84v-0.55h3.84V6.625
		l0.804,0.055c-0.012,0.099-0.089,0.176-0.232,0.187v2.101h3.807v0.55H87.236z M89.207,10.992c0.824,0.891,1.771,2.2,2.387,3.257
		l-0.506,0.297c-0.584-1.034-1.552-2.432-2.332-3.29L89.207,10.992z M89.118,6.547c0.528,0.462,1.089,1.133,1.408,1.639l-0.33,0.264
		c-0.341-0.506-0.913-1.21-1.408-1.628L89.118,6.547z M90.691,6.052c0.518,0.462,1.09,1.133,1.408,1.639l-0.341,0.264
		c-0.33-0.506-0.913-1.199-1.397-1.628L90.691,6.052z"/>
	<path fill="#FFFFFF" d="M93.188,10.805h9.186v0.572h-8.789c-0.056,0.11-0.199,0.188-0.33,0.198L93.188,10.805z"/>
	<path fill="#FFFFFF" d="M106.477,8.242c-0.012,0.099-0.111,0.154-0.242,0.176c-0.088,2.882-0.309,5.633-2.059,7.569
		c-0.121-0.099-0.297-0.22-0.461-0.297c1.693-1.815,1.893-4.532,1.947-7.536L106.477,8.242z M109.326,14.799
		c1.957-0.925,3.256-2.563,3.938-4.577c0.121,0.11,0.342,0.242,0.496,0.319c-0.781,2.211-2.18,3.851-4.521,4.951
		c-0.023,0.076-0.1,0.153-0.166,0.209l-0.418-0.562l0.1-0.143V6.822l0.791,0.055c-0.01,0.088-0.076,0.176-0.219,0.187V14.799z"/>
</g>
</svg>
