<?xml version="1.0" encoding="utf-8"?>
<!-- Generator: Adobe Illustrator 15.0.0, SVG Export Plug-In . SVG Version: 6.00 Build 0)  -->
<!DOCTYPE svg PUBLIC "-//W3C//DTD SVG 1.1//EN" "http://www.w3.org/Graphics/SVG/1.1/DTD/svg11.dtd">
<svg version="1.1" id="レイヤー_1" xmlns="http://www.w3.org/2000/svg" xmlns:xlink="http://www.w3.org/1999/xlink" x="0px"
	 y="0px" width="120px" height="23px" viewBox="0 0 120 23" enable-background="new 0 0 120 23" xml:space="preserve">
<g>
	<path fill="#FFFFFF" d="M35.127,14.477l1.838-0.684c0.029,0.1,0.043,0.199,0.128,0.612c-1.525,0.627-3.149,1.255-4.162,1.64
		c0,0.113-0.057,0.185-0.143,0.214l-0.399-0.799c0.57-0.185,1.283-0.441,2.066-0.741V9.731h-1.838v-0.67h1.838V5.612l0.912,0.057
		c-0.014,0.085-0.071,0.157-0.242,0.171v3.221h1.696v0.67h-1.696V14.477z M41.426,17.513h4.233v0.655h-9.606v-0.655h4.689v-2.366
		h-3.563v-0.655h3.563v-1.811h-3.335V6.197h7.468v6.484h-3.449v1.811h3.648v0.655h-3.648V17.513z M38.063,6.824v2.294h2.679V6.824
		H38.063z M38.063,12.054h2.679V9.731h-2.679V12.054z M44.191,9.118V6.824h-2.765v2.294H44.191z M44.191,12.054V9.731h-2.765v2.323
		H44.191z"/>
	<path fill="#FFFFFF" d="M46.873,17.284h12.869v0.685H46.873V17.284z M59.357,8.52v0.684H47.372V8.52h5.529V5.47l0.969,0.071
		c-0.014,0.085-0.085,0.157-0.256,0.171V8.52H59.357z M49.994,10.073c0.798,1.98,1.34,4.518,1.425,6.186
		c-0.128,0.014-0.242,0.028-0.712,0.128c-0.071-1.653-0.599-4.19-1.368-6.157L49.994,10.073z M57.547,10.173
		c-0.043,0.1-0.157,0.171-0.328,0.185c-0.441,1.924-1.254,4.846-1.924,6.47l-0.613-0.171c0.656-1.639,1.411-4.646,1.81-6.712
		L57.547,10.173z"/>
	<path fill="#FFFFFF" d="M71.359,17.171c-1.312,0.242-2.993,0.355-4.433,0.355c-1.14,0-2.124-0.071-2.651-0.185
		c-1.682-0.371-2.408-1.411-2.408-2.651c0-1.068,0.599-2.181,1.469-3.063l0.598,0.342c-0.855,0.884-1.325,1.867-1.325,2.708
		c0,0.883,0.585,1.667,1.896,1.967c0.484,0.113,1.354,0.185,2.395,0.185c1.383,0,3.035-0.128,4.403-0.398L71.359,17.171z
		 M65.145,10.059c0.842-0.641,1.925-1.382,2.779-1.795V8.249c-1.211,0.143-3.861,0.199-5.558,0.185l-0.015-0.727
		c1.568,0.028,4.39-0.043,5.701-0.143c0.812-0.071,1.61-0.143,2.365-0.328l0.129,0.77c-0.499,0.057-0.826,0.128-1.539,0.441
		c-0.812,0.342-2.195,1.154-3.307,2.038L65.145,10.059z M71.444,11.94c-0.442-0.642-1.325-1.497-1.967-1.967l0.37-0.356
		c0.699,0.513,1.555,1.354,2.01,1.967L71.444,11.94z M72.898,10.643c-0.414-0.57-1.254-1.425-1.967-1.953l0.37-0.37
		c0.713,0.527,1.582,1.354,2.01,1.967L72.898,10.643z"/>
	<path fill="#FFFFFF" d="M86.068,9.546c-0.043,0.171-0.186,0.256-0.398,0.271c-0.172,1.055-0.385,2.066-0.643,2.979
		c0.812,0.328,1.64,0.713,2.494,1.126l-0.342,0.713c-0.812-0.413-1.596-0.784-2.365-1.111c-0.684,2.138-1.696,3.648-3.264,4.674
		c-0.156-0.156-0.385-0.327-0.57-0.456c1.539-1.025,2.508-2.365,3.164-4.518c-1.568-0.627-3.008-1.055-4.147-1.14
		c-0.954,3.548-1.753,4.632-3.491,4.632c-1.611,0-1.967-1.24-1.967-2.124c0-2.194,2.266-3.178,4.902-3.207
		c0.313-1.183,0.599-2.665,0.812-4.29c-0.642,0.057-3.107,0.228-4.19,0.285c-0.057,0.1-0.157,0.171-0.284,0.2l-0.101-0.898
		c1.098-0.057,3.819-0.228,4.731-0.299c0.157-0.014,0.199-0.085,0.285-0.143l0.699,0.456c-0.072,0.1-0.172,0.157-0.343,0.2
		c-0.242,1.682-0.569,3.292-0.869,4.532c1.154,0.086,2.594,0.484,4.161,1.098c0.242-0.897,0.456-1.995,0.613-3.207L86.068,9.546z
		 M79.271,12.054c-2.224,0.043-4.048,0.898-4.048,2.522c0,0.87,0.428,1.469,1.184,1.469C77.574,16.045,78.315,15.646,79.271,12.054z
		"/>
</g>
</svg>
